<svg width="135" height="13" viewBox="0 0 135 13" fill="none" xmlns="http://www.w3.org/2000/svg">
<path d="M5.976 7.2C6.06667 7.37067 6.14933 7.54933 6.224 7.736C6.304 7.91733 6.38133 8.10133 6.456 8.288C6.53067 8.096 6.608 7.90667 6.688 7.72C6.768 7.53333 6.85333 7.35467 6.944 7.184L10.368 0.775999C10.4107 0.695999 10.4533 0.631999 10.496 0.584C10.544 0.535999 10.5947 0.501333 10.648 0.48C10.7067 0.458666 10.7707 0.445333 10.84 0.44C10.9093 0.434666 10.992 0.431999 11.088 0.431999H12.712V12H10.816V4.528C10.816 4.38933 10.8187 4.23733 10.824 4.072C10.8347 3.90667 10.848 3.73867 10.864 3.568L7.368 10.128C7.288 10.2773 7.184 10.3947 7.056 10.48C6.928 10.56 6.77867 10.6 6.608 10.6H6.312C6.14133 10.6 5.992 10.56 5.864 10.48C5.736 10.3947 5.632 10.2773 5.552 10.128L2.008 3.544C2.02933 3.72 2.04267 3.89333 2.048 4.064C2.05867 4.22933 2.064 4.384 2.064 4.528V12H0.168V0.431999H1.792C1.888 0.431999 1.97067 0.434666 2.04 0.44C2.10933 0.445333 2.17067 0.458666 2.224 0.48C2.28267 0.501333 2.336 0.535999 2.384 0.584C2.432 0.631999 2.47733 0.695999 2.52 0.775999L5.976 7.2ZM33.211 12H31.547C31.3603 12 31.2057 11.9547 31.083 11.864C30.9657 11.768 30.8803 11.6507 30.827 11.512L29.963 9.152H25.171L24.307 11.512C24.2643 11.6347 24.179 11.7467 24.051 11.848C23.9283 11.9493 23.7763 12 23.595 12H21.923L26.467 0.431999H28.667L33.211 12ZM25.723 7.632H29.411L28.003 3.784C27.939 3.61333 27.867 3.41333 27.787 3.184C27.7123 2.94933 27.6377 2.696 27.563 2.424C27.4883 2.696 27.4137 2.94933 27.339 3.184C27.2697 3.41867 27.2003 3.624 27.131 3.8L25.723 7.632ZM43.5304 0.431999C43.6264 0.431999 43.7064 0.437332 43.7704 0.447999C43.8344 0.453333 43.8904 0.469333 43.9384 0.495999C43.9917 0.517333 44.0424 0.552 44.0904 0.599999C44.1384 0.642666 44.1917 0.701333 44.2504 0.775999L50.3224 8.512C50.301 8.32533 50.285 8.144 50.2744 7.968C50.269 7.78667 50.2664 7.61867 50.2664 7.464V0.431999H52.1624V12H51.0504C50.8797 12 50.7384 11.9733 50.6264 11.92C50.5144 11.8667 50.405 11.7707 50.2984 11.632L44.2504 3.928C44.2664 4.09867 44.277 4.26933 44.2824 4.44C44.293 4.60533 44.2984 4.75733 44.2984 4.896V12H42.4024V0.431999H43.5304ZM64.9201 12H62.7601V0.431999H64.9201V12ZM82.8234 0.431999V2.144H77.6954V5.568H82.0234V7.288H77.6954V12H75.5274V0.431999H82.8234ZM99.8078 0.431999V2.144H94.6798V5.352H98.7198V7.008H94.6798V10.28H99.8078V12H92.5118V0.431999H99.8078ZM115.868 2.536C115.809 2.65333 115.74 2.736 115.66 2.784C115.585 2.832 115.495 2.856 115.388 2.856C115.281 2.856 115.161 2.816 115.028 2.736C114.895 2.65067 114.737 2.55733 114.556 2.456C114.375 2.35467 114.161 2.264 113.916 2.184C113.676 2.09867 113.391 2.056 113.06 2.056C112.761 2.056 112.5 2.09333 112.276 2.168C112.057 2.23733 111.871 2.336 111.716 2.464C111.567 2.592 111.455 2.74667 111.38 2.928C111.305 3.104 111.268 3.29867 111.268 3.512C111.268 3.784 111.343 4.01067 111.492 4.192C111.647 4.37333 111.849 4.528 112.1 4.656C112.351 4.784 112.636 4.89867 112.956 5C113.276 5.10133 113.601 5.21067 113.932 5.328C114.268 5.44 114.596 5.57333 114.916 5.728C115.236 5.87733 115.521 6.06933 115.772 6.304C116.023 6.53333 116.223 6.816 116.372 7.152C116.527 7.488 116.604 7.896 116.604 8.376C116.604 8.89867 116.513 9.38933 116.332 9.848C116.156 10.3013 115.895 10.6987 115.548 11.04C115.207 11.376 114.788 11.6427 114.292 11.84C113.796 12.032 113.228 12.128 112.588 12.128C112.22 12.128 111.857 12.0907 111.5 12.016C111.143 11.9467 110.799 11.8453 110.468 11.712C110.143 11.5787 109.836 11.4187 109.548 11.232C109.265 11.0453 109.012 10.8373 108.788 10.608L109.412 9.576C109.471 9.50133 109.54 9.44 109.62 9.392C109.705 9.33867 109.799 9.312 109.9 9.312C110.033 9.312 110.177 9.368 110.332 9.48C110.487 9.58667 110.668 9.70667 110.876 9.84C111.089 9.97333 111.337 10.096 111.62 10.208C111.908 10.3147 112.252 10.368 112.652 10.368C113.265 10.368 113.74 10.224 114.076 9.936C114.412 9.64267 114.58 9.224 114.58 8.68C114.58 8.376 114.503 8.128 114.348 7.936C114.199 7.744 113.999 7.584 113.748 7.456C113.497 7.32267 113.212 7.21067 112.892 7.12C112.572 7.02933 112.247 6.93067 111.916 6.824C111.585 6.71733 111.26 6.58933 110.94 6.44C110.62 6.29067 110.335 6.096 110.084 5.856C109.833 5.616 109.631 5.31733 109.476 4.96C109.327 4.59733 109.252 4.152 109.252 3.624C109.252 3.20267 109.335 2.792 109.5 2.392C109.671 1.992 109.916 1.63733 110.236 1.328C110.561 1.01867 110.959 0.770666 111.428 0.584C111.897 0.397333 112.433 0.304 113.036 0.304C113.719 0.304 114.348 0.410666 114.924 0.624C115.5 0.837333 115.991 1.136 116.396 1.52L115.868 2.536ZM134.398 0.431999V2.2H130.918V12H128.766V2.2H125.27V0.431999H134.398Z" fill="black"/>
</svg>
